<svg xmlns="http://www.w3.org/2000/svg" xmlns:xlink="http://www.w3.org/1999/xlink" width="512" zoomAndPan="magnify" viewBox="0 0 384 383.999986" height="512" preserveAspectRatio="xMidYMid meet" version="1.0"><path fill="#00adef" d="M 56.902344 157.75 L 36.664062 109.378906 L 48.039062 106.441406 L 87.214844 145.894531 C 110.660156 137.285156 137.726562 128.324219 160.910156 121.195312 L 107.164062 38.8125 L 131.871094 32.429688 L 211.324219 107.320312 C 251.617188 98.425781 284.136719 98.289062 286.546875 107.625 C 288.960938 116.964844 260.4375 132.59375 220.878906 144.324219 L 193.414062 231.035156 L 168.707031 237.417969 L 170.054688 156.597656 C 146.320312 161.585938 118.296875 166.855469 93.617188 170.679688 L 74.835938 211.152344 L 63.464844 214.09375 L 61.351562 174.980469 C 43.539062 176.828125 31.421875 176.835938 30.621094 173.730469 C 29.816406 170.621094 40.421875 164.757812 56.902344 157.75 Z M 13.957031 183.121094 C 5.523438 201.953125 3.613281 220.292969 9.542969 236.785156 C 14.410156 250.320312 23.671875 262.21875 37.683594 270.058594 C 76.886719 291.988281 149.046875 287.417969 222.265625 260.210938 C 250.742188 249.625 276.507812 236.410156 298.40625 221.785156 C 277.359375 238.25 252.195312 253.566406 224.027344 266.355469 C 199.367188 277.558594 174.761719 285.753906 151.402344 290.984375 C 187.851562 288.714844 228.367188 280.371094 269.53125 265.570312 C 313.902344 249.613281 352.914062 228.351562 383.574219 204.875 C 383.855469 200.621094 384 196.328125 384 192 C 384 85.960938 298.035156 0 192 0 C 85.960938 0 0 85.960938 0 192 C 0 194.15625 0.0390625 196.296875 0.109375 198.4375 C 4.304688 193.300781 8.925781 188.1875 13.957031 183.121094 " fill-opacity="1" fill-rule="nonzero"/><path fill="#3871c1" d="M 234.796875 313.71875 C 197.359375 327.179688 160.457031 335.300781 126.664062 338.367188 C 157.851562 340.015625 192.238281 337.769531 227.804688 331.070312 C 262.574219 324.527344 294.746094 314.425781 322.757812 301.945312 C 295.367188 316.707031 263.46875 329.335938 228.621094 338.480469 C 179.585938 351.34375 126.042969 354.910156 80.542969 348.355469 C 111.96875 370.792969 150.441406 384 192 384 C 287.101562 384 366.046875 314.855469 381.324219 224.101562 C 348.429688 258.710938 296.851562 291.402344 234.796875 313.71875 " fill-opacity="1" fill-rule="nonzero"/></svg>